<svg xmlns="http://www.w3.org/2000/svg" version="1.1" xmlns:xlink="http://www.w3.org/1999/xlink" xmlns:svgjs="http://svgjs.dev/svgjs" width="1440" height="560" preserveAspectRatio="none" viewBox="0 0 1440 560">
    <g mask="url(&quot;#SvgjsMask1000&quot;)" fill="none">
        <rect width="1440" height="560" x="0" y="0" fill="##ffffff"></rect>
        <path d="M1420 88L1419 246" stroke-width="6" stroke="url(&quot;#SvgjsLinearGradient1001&quot;)" stroke-linecap="round" class="Down"></path>
        <path d="M1143 555L1142 895" stroke-width="6" stroke="url(&quot;#SvgjsLinearGradient1002&quot;)" stroke-linecap="round" class="Up"></path>
        <path d="M976 149L975 7" stroke-width="10" stroke="url(&quot;#SvgjsLinearGradient1002&quot;)" stroke-linecap="round" class="Up"></path>
        <path d="M391 443L390 724" stroke-width="10" stroke="url(&quot;#SvgjsLinearGradient1001&quot;)" stroke-linecap="round" class="Down"></path>
        <path d="M1004 64L1003 -313" stroke-width="6" stroke="url(&quot;#SvgjsLinearGradient1001&quot;)" stroke-linecap="round" class="Down"></path>
        <path d="M1234 377L1233 6" stroke-width="6" stroke="url(&quot;#SvgjsLinearGradient1002&quot;)" stroke-linecap="round" class="Up"></path>
        <path d="M1260 37L1259 408" stroke-width="8" stroke="url(&quot;#SvgjsLinearGradient1002&quot;)" stroke-linecap="round" class="Up"></path>
        <path d="M658 54L657 -116" stroke-width="10" stroke="url(&quot;#SvgjsLinearGradient1001&quot;)" stroke-linecap="round" class="Down"></path>
        <path d="M142 548L141 714" stroke-width="8" stroke="url(&quot;#SvgjsLinearGradient1002&quot;)" stroke-linecap="round" class="Up"></path>
        <path d="M223 440L222 115" stroke-width="6" stroke="url(&quot;#SvgjsLinearGradient1001&quot;)" stroke-linecap="round" class="Down"></path>
        <path d="M489 532L488 943" stroke-width="8" stroke="url(&quot;#SvgjsLinearGradient1002&quot;)" stroke-linecap="round" class="Up"></path>
        <path d="M538 379L537 610" stroke-width="10" stroke="url(&quot;#SvgjsLinearGradient1001&quot;)" stroke-linecap="round" class="Down"></path>
        <path d="M888 542L887 683" stroke-width="10" stroke="url(&quot;#SvgjsLinearGradient1002&quot;)" stroke-linecap="round" class="Up"></path>
        <path d="M602 119L601 308" stroke-width="8" stroke="url(&quot;#SvgjsLinearGradient1001&quot;)" stroke-linecap="round" class="Down"></path>
        <path d="M1088 139L1087 336" stroke-width="10" stroke="url(&quot;#SvgjsLinearGradient1002&quot;)" stroke-linecap="round" class="Up"></path>
        <path d="M1238 359L1237 733" stroke-width="8" stroke="url(&quot;#SvgjsLinearGradient1001&quot;)" stroke-linecap="round" class="Down"></path>
        <path d="M741 557L740 739" stroke-width="10" stroke="url(&quot;#SvgjsLinearGradient1001&quot;)" stroke-linecap="round" class="Down"></path>
        <path d="M829 60L828 388" stroke-width="10" stroke="url(&quot;#SvgjsLinearGradient1001&quot;)" stroke-linecap="round" class="Down"></path>
        <path d="M1373 424L1372 237" stroke-width="10" stroke="url(&quot;#SvgjsLinearGradient1001&quot;)" stroke-linecap="round" class="Down"></path>
        <path d="M1024 467L1023 150" stroke-width="8" stroke="url(&quot;#SvgjsLinearGradient1002&quot;)" stroke-linecap="round" class="Up"></path>
        <path d="M718 357L717 -58" stroke-width="6" stroke="url(&quot;#SvgjsLinearGradient1001&quot;)" stroke-linecap="round" class="Down"></path>
        <path d="M793 301L792 70" stroke-width="10" stroke="url(&quot;#SvgjsLinearGradient1001&quot;)" stroke-linecap="round" class="Down"></path>
        <path d="M293 531L292 199" stroke-width="6" stroke="url(&quot;#SvgjsLinearGradient1002&quot;)" stroke-linecap="round" class="Up"></path>
        <path d="M581 517L580 724" stroke-width="10" stroke="url(&quot;#SvgjsLinearGradient1001&quot;)" stroke-linecap="round" class="Down"></path>
        <path d="M185 556L184 758" stroke-width="10" stroke="url(&quot;#SvgjsLinearGradient1002&quot;)" stroke-linecap="round" class="Up"></path>
        <path d="M286 418L285 136" stroke-width="10" stroke="url(&quot;#SvgjsLinearGradient1001&quot;)" stroke-linecap="round" class="Down"></path>
        <path d="M870 341L869 -65" stroke-width="10" stroke="url(&quot;#SvgjsLinearGradient1002&quot;)" stroke-linecap="round" class="Up"></path>
        <path d="M598 284L597 -134" stroke-width="10" stroke="url(&quot;#SvgjsLinearGradient1001&quot;)" stroke-linecap="round" class="Down"></path>
        <path d="M967 367L966 656" stroke-width="10" stroke="url(&quot;#SvgjsLinearGradient1001&quot;)" stroke-linecap="round" class="Down"></path>
        <path d="M1225 535L1224 245" stroke-width="6" stroke="url(&quot;#SvgjsLinearGradient1002&quot;)" stroke-linecap="round" class="Up"></path>
        <path d="M666 502L665 233" stroke-width="6" stroke="url(&quot;#SvgjsLinearGradient1002&quot;)" stroke-linecap="round" class="Up"></path>
        <path d="M166 193L165 483" stroke-width="10" stroke="url(&quot;#SvgjsLinearGradient1002&quot;)" stroke-linecap="round" class="Up"></path>
        <path d="M806 192L805 483" stroke-width="6" stroke="url(&quot;#SvgjsLinearGradient1002&quot;)" stroke-linecap="round" class="Up"></path>
        <path d="M127 299L126 -52" stroke-width="10" stroke="url(&quot;#SvgjsLinearGradient1001&quot;)" stroke-linecap="round" class="Down"></path>
        <path d="M524 94L523 263" stroke-width="6" stroke="url(&quot;#SvgjsLinearGradient1001&quot;)" stroke-linecap="round" class="Down"></path>
        <path d="M919 152L918 516" stroke-width="8" stroke="url(&quot;#SvgjsLinearGradient1001&quot;)" stroke-linecap="round" class="Down"></path>
    </g>
    <defs>
        <mask id="SvgjsMask1000">
            <rect width="1440" height="560" fill="#ffffff"></rect>
        </mask>
        <linearGradient x1="0%" y1="0%" x2="0%" y2="100%" id="SvgjsLinearGradient1001">
            <stop stop-color="rgba(28, 83, 142, 0)" offset="0"></stop>
            <stop stop-color="#1c538e" offset="1"></stop>
        </linearGradient>
        <linearGradient x1="0%" y1="100%" x2="0%" y2="0%" id="SvgjsLinearGradient1002">
            <stop stop-color="rgba(28, 83, 142, 0)" offset="0"></stop>
            <stop stop-color="#1c538e" offset="1"></stop>
        </linearGradient>
    </defs>
</svg>